<?xml version="1.0" encoding="utf-8"?>
<!-- Generator: Adobe Illustrator 23.0.3, SVG Export Plug-In . SVG Version: 6.00 Build 0)  -->
<svg version="1.1" id="Layer_1" xmlns="http://www.w3.org/2000/svg" xmlns:xlink="http://www.w3.org/1999/xlink" x="0px" y="0px"
	 viewBox="0 0 51.8 16.9" style="enable-background:new 0 0 51.8 16.9;" xml:space="preserve">
<style type="text/css">
	.st0{fill:#9AA0A6;}
</style>
<path class="st0" d="M6.7,13.1c-1.2,0-2.3-0.3-3.3-0.9s-1.8-1.4-2.4-2.4C0.3,8.8,0,7.7,0,6.6s0.3-2.3,0.9-3.3c0.6-1,1.4-1.8,2.4-2.4
	C4.4,0.3,5.5,0,6.7,0c1.7,0,3.2,0.6,4.5,1.8L9.9,3.1C9,2.2,7.9,1.8,6.7,1.8C5.8,1.8,5,2,4.3,2.4C3.6,2.9,3,3.4,2.6,4.2
	C2.2,4.9,2,5.7,2,6.6C2,7.4,2.2,8.2,2.6,9c0.4,0.7,1,1.3,1.7,1.7c0.7,0.4,1.5,0.6,2.4,0.6c0.8,0,1.4-0.1,1.9-0.4
	c0.5-0.2,1-0.6,1.4-0.9c0.5-0.5,0.8-1.3,1-2.3H6.7V6h6c0.1,0.3,0.1,0.7,0.1,1.1c0,0.8-0.1,1.5-0.4,2.3c-0.2,0.7-0.6,1.4-1.2,1.9
	C10.1,12.5,8.5,13.1,6.7,13.1L6.7,13.1z M17.7,13.1c-0.8,0-1.5-0.2-2.1-0.6c-0.7-0.4-1.2-0.9-1.5-1.5c-0.4-0.6-0.6-1.4-0.6-2.2
	c0-0.8,0.2-1.5,0.6-2.2c0.4-0.6,0.9-1.1,1.5-1.5c0.7-0.4,1.4-0.5,2.1-0.5c0.8,0,1.5,0.2,2.1,0.5c0.7,0.4,1.2,0.9,1.5,1.5
	c0.4,0.6,0.6,1.4,0.6,2.2c0,0.8-0.2,1.5-0.6,2.2c-0.4,0.6-0.9,1.2-1.5,1.5C19.1,12.9,18.4,13.1,17.7,13.1L17.7,13.1z M17.7,11.5
	c0.4,0,0.8-0.1,1.2-0.3c0.4-0.2,0.7-0.5,0.9-0.9C19.9,9.8,20,9.4,20,8.9c0-0.5-0.1-0.9-0.3-1.3c-0.2-0.4-0.5-0.7-0.9-0.9
	c-0.4-0.2-0.8-0.3-1.2-0.3c-0.4,0-0.8,0.1-1.2,0.3c-0.4,0.2-0.7,0.5-0.9,0.9c-0.2,0.4-0.3,0.8-0.3,1.3c0,0.5,0.1,0.9,0.3,1.3
	c0.2,0.4,0.5,0.7,0.9,0.9C16.8,11.3,17.2,11.5,17.7,11.5L17.7,11.5z M26.9,13.1c-0.8,0-1.5-0.2-2.1-0.6c-0.7-0.4-1.2-0.9-1.5-1.5
	c-0.4-0.6-0.6-1.4-0.6-2.2c0-0.8,0.2-1.5,0.6-2.2c0.4-0.6,0.9-1.1,1.5-1.5c0.7-0.4,1.4-0.5,2.1-0.5s1.5,0.2,2.1,0.5
	c0.7,0.4,1.2,0.9,1.5,1.5c0.4,0.6,0.6,1.4,0.6,2.2c0,0.8-0.2,1.5-0.6,2.2c-0.4,0.6-0.9,1.2-1.5,1.5C28.4,12.9,27.7,13.1,26.9,13.1
	L26.9,13.1z M26.9,11.5c0.4,0,0.8-0.1,1.2-0.3c0.4-0.2,0.7-0.5,0.9-0.9c0.2-0.4,0.3-0.8,0.3-1.3c0-0.5-0.1-0.9-0.3-1.3
	c-0.2-0.4-0.5-0.7-0.9-0.9c-0.4-0.2-0.8-0.3-1.2-0.3c-0.4,0-0.8,0.1-1.2,0.3c-0.4,0.2-0.7,0.5-0.9,0.9c-0.2,0.4-0.3,0.8-0.3,1.3
	c0,0.5,0.1,0.9,0.3,1.3c0.2,0.4,0.5,0.7,0.9,0.9C26.1,11.3,26.5,11.5,26.9,11.5L26.9,11.5z M36,16.9c-0.9,0-1.7-0.3-2.4-0.8
	c-0.6-0.5-1.1-1.1-1.4-1.7l1.6-0.7c0.2,0.4,0.4,0.8,0.8,1.1c0.4,0.3,0.8,0.4,1.3,0.4c0.7,0,1.3-0.2,1.7-0.6c0.4-0.4,0.6-1,0.6-1.8
	v-0.6h-0.1c-0.2,0.3-0.5,0.5-0.9,0.7c-0.4,0.2-0.8,0.3-1.3,0.3c-0.7,0-1.4-0.2-2-0.6c-0.6-0.4-1.1-0.9-1.5-1.5
	c-0.4-0.6-0.6-1.4-0.6-2.1c0-0.8,0.2-1.5,0.6-2.1c0.4-0.6,0.9-1.2,1.5-1.5c0.6-0.4,1.3-0.6,2-0.6c0.5,0,0.9,0.1,1.3,0.3
	c0.4,0.2,0.7,0.4,0.9,0.7h0.1V4.9H40v7.6c0,1.5-0.4,2.6-1.1,3.3C38.1,16.5,37.2,16.9,36,16.9L36,16.9z M36.1,11.5
	c0.4,0,0.8-0.1,1.1-0.3c0.3-0.2,0.6-0.5,0.8-0.9c0.2-0.4,0.3-0.8,0.3-1.3c0-0.5-0.1-0.9-0.3-1.3c-0.2-0.4-0.5-0.7-0.8-0.9
	c-0.3-0.2-0.7-0.3-1.1-0.3c-0.4,0-0.8,0.1-1.2,0.3c-0.4,0.2-0.6,0.5-0.9,0.9c-0.2,0.4-0.3,0.8-0.3,1.3c0,0.5,0.1,0.9,0.3,1.3
	c0.2,0.4,0.5,0.7,0.9,0.9C35.3,11.3,35.7,11.5,36.1,11.5L36.1,11.5z M41.3,0.4h1.9v12.4h-1.9V0.4z M48.2,13.1
	c-0.8,0-1.5-0.2-2.1-0.6S45,11.7,44.6,11C44.2,10.4,44,9.7,44,8.9c0-0.8,0.2-1.6,0.5-2.2c0.4-0.6,0.8-1.1,1.4-1.5
	c0.6-0.4,1.3-0.5,2-0.5c1,0,1.8,0.3,2.4,0.8c0.6,0.6,1,1.2,1.3,1.8l0.2,0.5l-5.6,2.3c0.4,0.9,1.1,1.3,2,1.3c0.9,0,1.5-0.4,2.1-1.2
	l1.4,1c-0.3,0.5-0.8,0.9-1.4,1.3C49.8,12.9,49.1,13.1,48.2,13.1L48.2,13.1z M49.7,7.2c-0.1-0.3-0.3-0.5-0.6-0.6
	c-0.3-0.2-0.6-0.2-1-0.2c-0.3,0-0.7,0.1-1,0.3c-0.4,0.2-0.6,0.5-0.9,0.8c-0.2,0.4-0.3,0.8-0.3,1.3L49.7,7.2z"/>
</svg>
